<?xml version="1.0" standalone="no"?><!DOCTYPE svg PUBLIC "-//W3C//DTD SVG 1.1//EN" "http://www.w3.org/Graphics/SVG/1.1/DTD/svg11.dtd"><svg t="1651462877004" class="icon" viewBox="0 0 1024 1024" version="1.1" xmlns="http://www.w3.org/2000/svg" p-id="10834" xmlns:xlink="http://www.w3.org/1999/xlink" width="64" height="64"><defs><style type="text/css">@font-face { font-family: feedback-iconfont; src: url("//at.alicdn.com/t/font_1031158_u69w8yhxdu.woff2?t=1630033759944") format("woff2"), url("//at.alicdn.com/t/font_1031158_u69w8yhxdu.woff?t=1630033759944") format("woff"), url("//at.alicdn.com/t/font_1031158_u69w8yhxdu.ttf?t=1630033759944") format("truetype"); }
</style></defs><path d="M516 673c0 4.4 3.4 8 7.5 8h185c4.1 0 7.5-3.6 7.5-8v-48c0-4.4-3.4-8-7.5-8h-185c-4.1 0-7.5 3.6-7.5 8v48z m-194.9 6.1l192-161c3.8-3.2 3.8-9.1 0-12.3l-192-160.9A7.95 7.95 0 0 0 308 351v62.7c0 2.4 1 4.6 2.9 6.1L420.7 512l-109.8 92.2a8.1 8.1 0 0 0-2.9 6.1V673c0 6.8 7.9 10.5 13.1 6.1zM880 112H144c-17.7 0-32 14.3-32 32v736c0 17.7 14.3 32 32 32h736c17.7 0 32-14.3 32-32V144c0-17.7-14.3-32-32-32z m-40 728H184V184h656v656z" p-id="10835" fill="#ffffff"></path></svg>