<?xml version="1.0" standalone="no"?><!DOCTYPE svg PUBLIC "-//W3C//DTD SVG 1.1//EN" "http://www.w3.org/Graphics/SVG/1.1/DTD/svg11.dtd"><svg t="1651476715308" class="icon" viewBox="0 0 1024 1024" version="1.1" xmlns="http://www.w3.org/2000/svg" p-id="9853" xmlns:xlink="http://www.w3.org/1999/xlink" width="64" height="64"><defs><style type="text/css">@font-face { font-family: feedback-iconfont; src: url("//at.alicdn.com/t/font_1031158_u69w8yhxdu.woff2?t=1630033759944") format("woff2"), url("//at.alicdn.com/t/font_1031158_u69w8yhxdu.woff?t=1630033759944") format("woff"), url("//at.alicdn.com/t/font_1031158_u69w8yhxdu.ttf?t=1630033759944") format("truetype"); }
</style></defs><path d="M484 443.1V528h-84.5c-4.1 0-7.5 3.1-7.5 7v42c0 3.8 3.4 7 7.5 7H484v84.9c0 3.9 3.2 7.1 7 7.1h42c3.9 0 7-3.2 7-7.1V584h84.5c4.1 0 7.5-3.2 7.5-7v-42c0-3.9-3.4-7-7.5-7H540v-84.9c0-3.9-3.1-7.1-7-7.1h-42c-3.8 0-7 3.2-7 7.1z m396-144.7H521L403.7 186.2a8.15 8.15 0 0 0-5.5-2.2H144c-17.7 0-32 14.3-32 32v592c0 17.7 14.3 32 32 32h736c17.7 0 32-14.3 32-32V330.4c0-17.7-14.3-32-32-32zM840 768H184V256h188.5l119.6 114.4H840V768z" p-id="9854" fill="#ffffff"></path></svg>