<?xml version="1.0" standalone="no"?><!DOCTYPE svg PUBLIC "-//W3C//DTD SVG 1.1//EN" "http://www.w3.org/Graphics/SVG/1.1/DTD/svg11.dtd"><svg t="1651484110356" class="icon" viewBox="0 0 1024 1024" version="1.1" xmlns="http://www.w3.org/2000/svg" p-id="20529" xmlns:xlink="http://www.w3.org/1999/xlink" width="64" height="64"><defs><style type="text/css">@font-face { font-family: feedback-iconfont; src: url("//at.alicdn.com/t/font_1031158_u69w8yhxdu.woff2?t=1630033759944") format("woff2"), url("//at.alicdn.com/t/font_1031158_u69w8yhxdu.woff?t=1630033759944") format("woff"), url("//at.alicdn.com/t/font_1031158_u69w8yhxdu.ttf?t=1630033759944") format("truetype"); }
</style></defs><path d="M898.56 189.44c-30.72-28.16-76.8-28.16-107.52 0l-440.32 435.2c-53.76 0-128 17.92-161.28 122.88-25.6 56.32-89.6 53.76-89.6 53.76 135.68 148.48 291.84 64 330.24 28.16 30.72-33.28 35.84-71.68 33.28-102.4l435.2-430.08c30.72-30.72 30.72-76.8 0-107.52zM396.8 793.6c-25.6 23.04-138.24 74.24-204.8 25.6 0 0 23.04-17.92 40.96-53.76 40.96-110.08 145.92-94.72 145.92-94.72l35.84 35.84c0-2.56 25.6 46.08-17.92 87.04z m53.76-125.44l-35.84-35.84 53.76-53.76 35.84 35.84-53.76 53.76z m412.16-407.04L537.6 581.12l-35.84-35.84L826.88 225.28c10.24-10.24 25.6-10.24 35.84 0 10.24 10.24 10.24 25.6 0 35.84z" p-id="20530" fill="#6B7280"></path></svg>