<?xml version="1.0" standalone="no"?><!DOCTYPE svg PUBLIC "-//W3C//DTD SVG 1.1//EN" "http://www.w3.org/Graphics/SVG/1.1/DTD/svg11.dtd"><svg t="1651483993927" class="icon" viewBox="0 0 1024 1024" version="1.1" xmlns="http://www.w3.org/2000/svg" p-id="11196" xmlns:xlink="http://www.w3.org/1999/xlink" width="64" height="64"><defs><style type="text/css">@font-face { font-family: feedback-iconfont; src: url("//at.alicdn.com/t/font_1031158_u69w8yhxdu.woff2?t=1630033759944") format("woff2"), url("//at.alicdn.com/t/font_1031158_u69w8yhxdu.woff?t=1630033759944") format("woff"), url("//at.alicdn.com/t/font_1031158_u69w8yhxdu.ttf?t=1630033759944") format("truetype"); }
</style></defs><path d="M196.383562 1011.375342c-23.846575 0-49.09589-5.610959-72.942466-15.430137-11.221918-4.208219-18.235616-14.027397-21.041096-25.249315-2.805479-11.221918 1.40274-22.443836 9.819178-30.860274l65.928767-65.928767-23.846575-23.846575-67.331507 67.331507c-8.416438 8.416438-19.638356 11.221918-30.860274 9.819178-11.221918-1.40274-21.041096-9.819178-25.249315-19.638356C0 837.435616 14.027397 754.673973 68.734247 701.369863c42.082192-42.082192 102.4-60.317808 159.912328-50.49863l347.879452-347.879452c-22.443836-77.150685-1.40274-161.315068 56.109589-220.230137 65.928767-65.928767 162.717808-84.164384 246.882192-46.290411 11.221918 4.208219 18.235616 14.027397 21.041096 25.249315 2.805479 11.221918-1.40274 22.443836-9.819178 30.860274l-92.580822 92.580822 44.887671 44.887671 93.983562-93.983562c8.416438-8.416438 19.638356-11.221918 30.860274-9.819178 11.221918 1.40274 21.041096 9.819178 25.249315 19.638357 39.276712 84.164384 21.041096 185.161644-44.887671 251.09041-58.915068 58.915068-144.482192 79.956164-224.438356 54.70685l-347.879452 350.684931c8.416438 56.109589-9.819178 115.024658-50.498631 155.70411-35.068493 35.068493-81.358904 53.30411-129.052054 53.304109z m-40.679452-246.882191c8.416438 0 18.235616 2.805479 25.249315 9.819178l74.345205 74.345205c14.027397 14.027397 14.027397 36.471233 0 49.095891l-42.082192 42.082191c23.846575-2.805479 46.290411-14.027397 63.123288-32.263013 28.054795-28.054795 39.276712-70.136986 28.054795-108.010959-4.208219-14.027397 1.40274-29.457534 14.027397-37.873973l374.531507-374.531507c9.819178-9.819178 25.249315-12.624658 39.276712-7.013698 57.512329 25.249315 124.843836 12.624658 169.731507-32.263014 32.263014-32.263014 47.693151-75.747945 44.887671-119.232877l-75.747945 75.747946c-12.624658 12.624658-36.471233 12.624658-49.095891 0l-98.19178-93.983562c-14.027397-14.027397-14.027397-36.471233 0-49.095891l72.942465-72.942465c-42.082192-1.40274-82.761644 14.027397-113.621917 44.887671-43.484932 43.484932-57.512329 109.413699-33.665754 166.926027 5.610959 12.624658 2.805479 28.054795-7.013698 37.873973L263.715068 715.39726c-9.819178 9.819178-22.443836 12.624658-35.068493 8.416439-39.276712-12.624658-81.358904-1.40274-110.816438 28.054794-18.235616 18.235616-29.457534 43.484932-32.263014 67.331507l44.887672-44.887671c7.013699-7.013699 15.430137-9.819178 25.249315-9.819178z" p-id="11197" fill="#6B7280"></path></svg>