<?xml version="1.0" standalone="no"?><!DOCTYPE svg PUBLIC "-//W3C//DTD SVG 1.1//EN" "http://www.w3.org/Graphics/SVG/1.1/DTD/svg11.dtd"><svg t="1651483807756" class="icon" viewBox="0 0 1024 1024" version="1.1" xmlns="http://www.w3.org/2000/svg" p-id="3986" xmlns:xlink="http://www.w3.org/1999/xlink" width="64" height="64"><defs><style type="text/css">@font-face { font-family: feedback-iconfont; src: url("//at.alicdn.com/t/font_1031158_u69w8yhxdu.woff2?t=1630033759944") format("woff2"), url("//at.alicdn.com/t/font_1031158_u69w8yhxdu.woff?t=1630033759944") format("woff"), url("//at.alicdn.com/t/font_1031158_u69w8yhxdu.ttf?t=1630033759944") format("truetype"); }
</style></defs><path d="M348.37037005 512c0 89.99629662 73.63333333 163.62962995 163.62962995 163.62962995s163.62962995-73.63333333 163.62962995-163.62962995-73.63333333-163.62962995-163.62962995-163.62962995-163.62962995 73.63333333-163.62962995 163.62962995z m-81.8148145 0c0-134.99444445 110.45-245.44444445 245.44444445-245.44444445V205.19444445C342.23425894 205.19444445 205.19444445 342.23425894 205.19444445 512s137.0398145 306.80555555 306.80555555 306.80555555 306.80555555-137.0398145 306.80555555-306.80555555h-61.3611111c0 134.99444445-110.45 245.44444445-245.44444445 245.44444445s-245.44444445-110.45-245.44444445-245.44444445z" p-id="3987" fill="#6B7280"></path><path d="M788.125 512m-30.68055555 0a30.68055555 30.68055555 0 1 0 61.3611111 0 30.68055555 30.68055555 0 1 0-61.3611111 0Z" p-id="3988" fill="#6B7280"></path><path d="M512 235.875m-30.68055555 0a30.68055555 30.68055555 0 1 0 61.3611111 0 30.68055555 30.68055555 0 1 0-61.3611111 0Z" p-id="3989" fill="#6B7280"></path><path d="M215.42129662 808.57870338m-71.58796329 0a71.58796329 71.58796329 0 1 0 143.17592561 0 71.58796329 71.58796329 0 1 0-143.17592561 0Z" p-id="3990" fill="#6B7280"></path><path d="M829.03240772 235.875m-71.58796327 0a71.58796329 71.58796329 0 1 0 143.1759256 0 71.58796329 71.58796329 0 1 0-143.1759256 0Z" p-id="3991" fill="#6B7280"></path><path d="M923.11944445 329.96203671c-14.31759228 14.31759228-32.72592561 26.5898145-53.17962995 32.72592657 18.40833333 47.04351884 30.68055555 96.13240772 30.68055555 149.31203672 0 214.76388889-173.85648116 388.62037005-388.62037005 388.62037005-63.40648116 0-120.67685217-14.31759228-173.85648116-40.90740677-8.18148116 20.45370338-20.45370338 36.81666667-36.81666667 51.13425894C364.73333333 943.57314783 436.32129662 961.98148116 512 961.98148116c249.5351855 0 449.98148116-200.44629662 449.98148116-449.98148116 0-65.45185217-14.31759228-126.81296329-38.86203671-182.03796329zM512 123.37962995c71.58796329 0 139.0851855 20.45370338 198.40092561 55.225 10.22685217-18.40833333 22.49907439-34.77129662 38.86203767-49.08888889C679.72037005 86.56296329 599.95092561 62.01851884 512 62.01851884 262.4648145 62.01851884 62.01851884 262.4648145 62.01851884 512c0 75.67870338 18.40833333 147.26666667 53.17962899 210.67314783 14.31759228-16.36296328 30.68055555-28.6351855 51.13425989-36.81666667-26.5898145-53.17962995-40.90740772-110.45-40.90740772-173.85648116C123.37962995 297.23611111 297.23611111 123.37962995 512 123.37962995z" p-id="3992" fill="#6B7280"></path></svg>